<svg width="15" height="15" viewBox="0 0 15 15" fill="none" xmlns="http://www.w3.org/2000/svg">
<path d="M14.2558 7.49998C14.2558 3.77905 11.2325 0.744171 7.49995 0.744171C3.7674 0.744171 0.744141 3.77905 0.744141 7.49998C0.744141 11.2209 3.77902 14.2558 7.49995 14.2558C11.2209 14.2558 14.2558 11.2209 14.2558 7.49998ZM1.69763 7.49998C1.69763 4.30231 4.30228 1.69766 7.49995 1.69766C10.6976 1.69766 13.3023 4.30231 13.3023 7.49998C13.3023 10.6977 10.6976 13.3023 7.49995 13.3023C4.30228 13.3023 1.69763 10.6977 1.69763 7.49998Z" fill="black"/>
<path d="M10.8719 9.0581C10.965 8.96507 11.0115 8.84879 11.0115 8.72089C11.0115 8.60461 10.965 8.4767 10.8719 8.38368L7.80218 5.31391C7.70916 5.22088 7.59288 5.17437 7.46497 5.17437C7.33706 5.17437 7.22078 5.22088 7.12776 5.31391L4.05799 8.38368C3.87195 8.56972 3.87195 8.87205 4.05799 9.0581C4.24404 9.24414 4.54636 9.24414 4.73241 9.0581L7.46497 6.32554L10.1975 9.0581C10.3836 9.24414 10.6859 9.24414 10.8719 9.0581Z" fill="black"/>
</svg>
