<svg width="19" height="19" viewBox="0 0 19 19" fill="none" xmlns="http://www.w3.org/2000/svg">
<g clip-path="url(#clip0_1_5803)">
<path d="M16.2582 6.87769H15.1188V5.35858C15.1188 2.42685 12.7338 0.041748 9.802 0.041748C6.87024 0.041748 4.48517 2.42685 4.48517 5.35858V6.87769H3.34585C3.13593 6.87769 2.96606 7.04755 2.96606 7.25747V16.7518C2.96606 17.5896 3.64734 18.2709 4.48517 18.2709H15.1189C15.9567 18.2709 16.6379 17.5896 16.6379 16.7518V7.25747C16.6379 7.04755 16.4681 6.87769 16.2582 6.87769ZM10.9391 14.811C10.951 14.9182 10.9165 15.0258 10.8446 15.1063C10.7726 15.1867 10.6695 15.2327 10.5616 15.2327H9.04247C8.93455 15.2327 8.83144 15.1867 8.75949 15.1063C8.68753 15.0258 8.65303 14.9182 8.66492 14.811L8.9045 12.6567C8.51546 12.3737 8.28293 11.926 8.28293 11.435C8.28293 10.5972 8.96421 9.91587 9.80204 9.91587C10.6399 9.91587 11.3211 10.5972 11.3211 11.435C11.3211 11.926 11.0886 12.3737 10.6996 12.6567L10.9391 14.811ZM12.8402 6.87769H6.76382V5.35858C6.76382 3.68335 8.12677 2.32039 9.802 2.32039C11.4772 2.32039 12.8402 3.68335 12.8402 5.35858V6.87769Z" fill="#31BE00"/>
</g>
<defs>
<clipPath id="clip0_1_5803">
<rect width="18.2292" height="18.2292" fill="white" transform="translate(0.6875 0.041748)"/>
</clipPath>
</defs>
</svg>
