<svg width="1920" height="1030" viewBox="0 0 1920 1030" fill="none" xmlns="http://www.w3.org/2000/svg">
<path d="M333.624 708.482L336.127 704.498C337.317 705.245 338.602 705.587 339.895 705.589C341.073 705.589 342.248 705.294 343.283 704.733C344.322 704.17 345.22 703.359 345.903 702.275V702.271C346.65 701.081 346.995 699.796 346.997 698.503C346.997 697.326 346.701 696.154 346.14 695.117C345.579 694.08 344.766 693.182 343.684 692.499C342.498 691.757 341.216 691.413 339.921 691.411C338.743 691.411 337.567 691.706 336.53 692.267C335.491 692.83 334.591 693.643 333.908 694.725L333.906 694.729C333.163 695.913 332.82 697.197 332.818 698.49C332.816 699.668 333.114 700.842 333.675 701.881C334.237 702.92 335.05 703.82 336.131 704.501L336.127 704.498L333.624 708.482L331.117 712.465C328.638 710.906 326.695 708.768 325.393 706.351C324.087 703.931 323.407 701.23 323.407 698.49C323.404 695.489 324.232 692.429 325.944 689.715L325.943 689.717C327.501 687.236 329.639 685.29 332.058 683.988C334.478 682.681 337.181 682 339.921 682C342.92 681.998 345.98 682.824 348.692 684.533C351.173 686.09 353.117 688.226 354.42 690.645C355.726 693.063 356.407 695.762 356.407 698.503C356.409 701.505 355.581 704.567 353.87 707.283V707.281C352.314 709.762 350.175 711.708 347.759 713.012C345.338 714.319 342.637 715 339.895 715C336.897 715.002 333.836 714.176 331.12 712.467L331.117 712.465L333.624 708.482Z" fill="#1E1E1F"/>
<path fill-rule="evenodd" clip-rule="evenodd" d="M194.322 233.898L163.744 212.995L155.652 224.832L163.478 230.183L163.086 230.756L150.698 248.878L149.551 248.093L161.547 230.546L154.867 225.98L142.84 243.574L173.418 264.478L194.322 233.898ZM177.193 271.267L202.019 234.952C202.536 234.196 202.735 233.247 202.566 232.349C202.397 231.449 201.867 230.639 201.112 230.123L164.797 205.298C164.042 204.782 163.095 204.582 162.196 204.752C161.297 204.92 160.485 205.449 159.968 206.205L135.142 242.521C134.626 243.276 134.428 244.224 134.597 245.124C134.766 246.022 135.295 246.834 136.05 247.35L145.598 253.877L137.505 265.714L102.339 241.674L126.381 206.506L149.115 222.047L149.899 220.9L126.018 204.574L100.407 242.037L137.868 267.646L146.745 254.661L172.364 272.175C173.119 272.691 174.068 272.89 174.967 272.722C175.866 272.552 176.677 272.022 177.193 271.267Z" fill="#1E1E1F"/>
<g opacity="0.03">
<path d="M1679.09 640.274C1679.52 640.138 1679.76 639.981 1679.99 639.768C1680.18 639.579 1680.36 639.326 1680.54 638.963C1680.86 638.335 1681.12 637.382 1681.36 636.258C1681.73 634.57 1682.03 632.516 1682.99 630.487C1683.47 629.476 1684.15 628.469 1685.09 627.614C1686.03 626.757 1687.23 626.079 1688.63 625.66C1689.85 625.295 1691.13 625.984 1691.49 627.198C1691.85 628.412 1691.17 629.691 1689.95 630.056C1689.24 630.273 1688.74 630.549 1688.34 630.868C1688 631.147 1687.72 631.466 1687.47 631.856C1687.03 632.533 1686.7 633.446 1686.43 634.52C1686.02 636.132 1685.79 638.042 1685.1 639.948C1684.76 640.899 1684.27 641.873 1683.5 642.737C1682.73 643.601 1681.65 644.303 1680.41 644.67C1679.19 645.034 1677.91 644.345 1677.55 643.132C1677.18 641.917 1677.87 640.638 1679.09 640.274Z" fill="white"/>
<path d="M1653.57 647.936C1654 647.8 1654.24 647.643 1654.47 647.43C1654.66 647.241 1654.84 646.988 1655.02 646.625C1655.34 645.997 1655.6 645.045 1655.84 643.921C1656.21 642.233 1656.51 640.18 1657.47 638.15C1657.95 637.14 1658.63 636.133 1659.57 635.278C1660.51 634.421 1661.71 633.743 1663.11 633.324C1664.33 632.96 1665.6 633.648 1665.97 634.862C1666.33 636.076 1665.65 637.356 1664.43 637.72C1663.72 637.937 1663.22 638.213 1662.82 638.531C1662.48 638.811 1662.2 639.131 1661.95 639.52C1661.51 640.196 1661.18 641.109 1660.91 642.183C1660.5 643.795 1660.27 645.705 1659.58 647.611C1659.24 648.561 1658.75 649.535 1657.98 650.399C1657.21 651.263 1656.13 651.965 1654.89 652.331C1653.67 652.696 1652.39 652.007 1652.03 650.794C1651.67 649.579 1652.35 648.3 1653.57 647.936Z" fill="white"/>
<path d="M1680.46 644.652C1679.38 644.981 1678.26 645.034 1677.26 644.839C1676.37 644.673 1675.58 644.336 1674.89 643.93C1673.67 643.216 1672.71 642.307 1671.81 641.431C1670.48 640.11 1669.27 638.85 1668.13 638.175C1667.55 637.832 1667.02 637.624 1666.45 637.536C1665.89 637.451 1665.27 637.473 1664.44 637.717C1663.23 638.082 1661.95 637.393 1661.58 636.179C1661.22 634.965 1661.91 633.686 1663.12 633.321C1664.34 632.952 1665.54 632.831 1666.66 632.938C1667.64 633.03 1668.55 633.293 1669.37 633.656C1670.8 634.295 1671.94 635.21 1672.94 636.116C1674.42 637.482 1675.63 638.861 1676.67 639.611C1677.18 639.991 1677.61 640.207 1677.97 640.298C1678.33 640.386 1678.64 640.399 1679.14 640.257C1680.35 639.892 1681.63 640.58 1682 641.794C1682.36 643.008 1681.67 644.288 1680.46 644.652Z" fill="white"/>
<path d="M1654.87 652.335C1653.79 652.664 1652.68 652.716 1651.67 652.521C1650.79 652.355 1650 652.018 1649.31 651.612C1648.09 650.897 1647.13 649.989 1646.23 649.114C1644.9 647.791 1643.69 646.533 1642.54 645.858C1641.97 645.515 1641.44 645.306 1640.87 645.218C1640.31 645.133 1639.69 645.155 1638.86 645.399L1638.86 645.399L1638.2 643.207L1639.2 645.267C1639.05 645.341 1638.92 645.381 1638.86 645.399L1638.2 643.207L1639.2 645.267C1638.06 645.818 1636.69 645.341 1636.13 644.201C1635.58 643.059 1636.06 641.686 1637.2 641.135C1637.36 641.061 1637.48 641.022 1637.54 641.003L1637.54 641.003C1638.76 640.634 1639.96 640.513 1641.08 640.62C1642.06 640.712 1642.97 640.976 1643.79 641.338C1645.22 641.977 1646.36 642.891 1647.36 643.797C1648.83 645.164 1650.05 646.543 1651.09 647.293C1651.6 647.673 1652.03 647.889 1652.39 647.981C1652.75 648.067 1653.05 648.082 1653.56 647.939C1654.77 647.574 1656.05 648.264 1656.41 649.477C1656.78 650.691 1656.09 651.971 1654.87 652.335Z" fill="white"/>
<path d="M1663.35 660.641C1664.58 660.272 1665.45 659.543 1666.05 658.634C1666.66 657.721 1667.01 656.64 1667.29 655.504C1667.84 653.231 1668.12 650.715 1669.23 648.834C1669.97 647.579 1671.04 646.589 1672.88 646.032L1672.61 645.153C1672.61 645.154 1672.61 645.155 1672.6 645.156C1671.08 645.614 1669.96 646.392 1669.15 647.354C1668.34 648.318 1667.84 649.451 1667.48 650.623C1666.76 652.966 1666.56 655.495 1665.75 657.292C1665.2 658.491 1664.45 659.345 1663.07 659.766L1663.33 660.646C1663.34 660.644 1663.34 660.643 1663.35 660.641Z" fill="white"/>
<path d="M1637.83 668.303C1639.06 667.934 1639.93 667.205 1640.53 666.296C1641.14 665.383 1641.49 664.302 1641.77 663.166C1642.32 660.894 1642.6 658.379 1643.71 656.498C1644.45 655.244 1645.52 654.253 1647.36 653.696L1647.09 652.817C1647.09 652.818 1647.09 652.819 1647.08 652.82C1645.56 653.278 1644.44 654.056 1643.63 655.018C1642.82 655.981 1642.32 657.115 1641.96 658.287C1641.24 660.629 1641.04 663.159 1640.23 664.955C1639.68 666.153 1638.93 667.007 1637.55 667.429L1637.81 668.308C1637.82 668.306 1637.82 668.305 1637.83 668.303Z" fill="white"/>
<path d="M1663.36 660.635C1663.37 660.633 1663.38 660.631 1663.38 660.629L1663.12 659.749C1662.08 660.058 1661.21 659.96 1660.36 659.604C1659.51 659.247 1658.69 658.611 1657.87 657.846C1656.21 656.321 1654.56 654.292 1652.36 653.2C1650.89 652.473 1649.15 652.198 1647.12 652.808C1647.12 652.81 1647.11 652.812 1647.1 652.814L1647.37 653.693C1648.74 653.281 1649.9 653.319 1650.94 653.625C1651.98 653.934 1652.92 654.527 1653.82 655.261C1655.61 656.725 1657.16 658.744 1659.03 659.935C1660.27 660.728 1661.72 661.129 1663.36 660.635Z" fill="white"/>
<path d="M1637.8 668.312L1637.67 667.872L1637.54 667.432C1636.5 667.741 1635.63 667.641 1634.78 667.286C1633.93 666.93 1633.11 666.293 1632.29 665.527C1630.63 664.003 1628.98 661.975 1626.78 660.882C1625.31 660.155 1623.57 659.88 1621.55 660.489L1621.52 660.496L1621.45 660.523L1621.85 661.349L1621.66 660.942L1621.79 661.375L1621.79 661.375C1623.17 660.963 1624.32 661.001 1625.36 661.308C1626.4 661.616 1627.34 662.209 1628.23 662.943C1630.03 664.406 1631.58 666.426 1633.45 667.617C1634.69 668.409 1636.13 668.812 1637.78 668.318C1637.79 668.316 1637.79 668.313 1637.8 668.312Z" fill="white"/>
</g>
<g opacity="0.03">
<path d="M745.609 714.972C745.091 714.509 744.699 714.319 744.243 714.192C743.843 714.085 743.367 714.043 742.752 714.092C741.681 714.17 740.228 714.574 738.571 715.146C736.07 715.981 733.143 717.196 729.736 717.533C728.034 717.693 726.188 717.601 724.33 717.036C722.471 716.478 720.643 715.44 718.994 713.93C717.565 712.626 717.464 710.412 718.768 708.982C720.072 707.553 722.286 707.452 723.715 708.756C724.559 709.522 725.309 709.954 726.038 710.225C726.676 710.459 727.311 710.573 728.018 710.596C729.247 710.636 730.703 710.356 732.319 709.865C734.755 709.146 737.436 707.949 740.466 707.348C741.985 707.06 743.64 706.931 745.378 707.269C747.112 707.598 748.872 708.452 750.33 709.798C751.758 711.1 751.859 713.317 750.556 714.745C749.253 716.174 747.037 716.275 745.609 714.972Z" fill="white"/>
<path d="M775.644 742.378C775.127 741.916 774.733 741.725 774.277 741.598C773.879 741.492 773.402 741.449 772.786 741.498C771.716 741.576 770.265 741.98 768.607 742.551C766.107 743.387 763.181 744.601 759.773 744.938C758.072 745.098 756.227 745.007 754.367 744.443C752.509 743.883 750.682 742.846 749.033 741.336C747.604 740.032 747.503 737.817 748.806 736.388C750.11 734.959 752.325 734.858 753.754 736.162C754.598 736.928 755.348 737.36 756.075 737.631C756.713 737.864 757.35 737.979 758.056 738.001C759.284 738.042 760.739 737.762 762.356 737.27C764.792 736.552 767.472 735.354 770.502 734.755C772.02 734.466 773.676 734.338 775.414 734.676C777.147 735.004 778.907 735.858 780.364 737.204C781.794 738.507 781.894 740.723 780.591 742.151C779.287 743.58 777.073 743.682 775.644 742.378Z" fill="white"/>
<path d="M750.268 709.745C751.546 710.904 752.487 712.317 753.021 713.789C753.496 715.075 753.674 716.374 753.687 717.601C753.705 719.755 753.269 721.725 752.826 723.587C752.139 726.366 751.439 728.937 751.454 730.968C751.454 731.987 751.599 732.85 751.927 733.659C752.26 734.466 752.776 735.264 753.742 736.151C755.171 737.454 755.272 739.669 753.968 741.098C752.665 742.527 750.45 742.629 749.021 741.325C747.58 740.013 746.482 738.54 745.745 736.989C745.096 735.634 744.727 734.235 744.563 732.883C744.277 730.508 744.58 728.296 744.986 726.283C745.616 723.276 746.467 720.601 746.638 718.66C746.734 717.69 746.676 716.953 746.516 716.414C746.346 715.87 746.127 715.464 745.547 714.919C744.118 713.615 744.016 711.401 745.32 709.972C746.623 708.544 748.839 708.441 750.268 709.745Z" fill="white"/>
<path d="M780.38 737.217C781.659 738.376 782.598 739.791 783.131 741.262C783.605 742.547 783.783 743.846 783.797 745.074C783.814 747.226 783.378 749.197 782.936 751.057C782.248 753.838 781.549 756.408 781.564 758.439C781.564 759.457 781.708 760.319 782.035 761.127C782.369 761.936 782.884 762.732 783.849 763.618L783.85 763.619L781.496 766.199L783.412 763.28C783.629 763.423 783.777 763.553 783.85 763.619L781.496 766.199L783.412 763.28C785.028 764.342 785.479 766.512 784.418 768.13C783.356 769.747 781.184 770.196 779.568 769.135C779.351 768.992 779.203 768.86 779.129 768.793L779.128 768.792C777.688 767.482 776.59 766.008 775.853 764.458C775.204 763.102 774.836 761.704 774.672 760.352C774.387 757.98 774.689 755.768 775.095 753.755C775.725 750.747 776.576 748.073 776.748 746.13C776.843 745.161 776.786 744.424 776.626 743.884C776.455 743.342 776.237 742.934 775.657 742.39C774.228 741.086 774.128 738.871 775.431 737.443C776.735 736.014 778.951 735.914 780.38 737.217Z" fill="white"/>
<path d="M784.614 719.616C783.165 718.293 781.524 717.718 779.863 717.643C778.193 717.565 776.501 717.952 774.795 718.477C771.388 719.539 767.874 721.143 764.541 721.164C762.317 721.176 760.183 720.554 758.016 718.589L757.072 719.624C757.075 719.626 757.079 719.63 757.084 719.634C758.879 721.272 760.773 722.124 762.665 722.426C764.562 722.731 766.438 722.499 768.256 722.055C771.887 721.158 775.355 719.437 778.348 719.1C780.349 718.879 782.054 719.191 783.687 720.666L784.631 719.631C784.626 719.626 784.62 719.62 784.614 719.616Z" fill="white"/>
<path d="M814.649 747.022C813.201 745.7 811.559 745.124 809.899 745.05C808.228 744.971 806.537 745.359 804.83 745.883C801.424 746.944 797.911 748.547 794.579 748.569C792.355 748.581 790.221 747.959 788.055 745.995L787.111 747.029C787.115 747.033 787.119 747.037 787.124 747.041C788.918 748.678 790.812 749.53 792.703 749.831C794.599 750.137 796.476 749.904 798.294 749.46C801.923 748.563 805.392 746.843 808.384 746.505C810.384 746.285 812.088 746.596 813.722 748.071L814.666 747.037C814.661 747.032 814.655 747.026 814.649 747.022Z" fill="white"/>
<path d="M784.595 719.601C784.586 719.594 784.577 719.585 784.569 719.578L783.625 720.613C784.846 721.735 785.397 722.948 785.597 724.339C785.794 725.728 785.603 727.298 785.247 728.977C784.548 732.341 783.186 736.091 783.486 739.837C783.684 742.327 784.684 744.816 787.074 746.996C787.082 747.003 787.09 747.011 787.099 747.018L788.043 745.983C786.423 744.502 785.569 742.964 785.153 741.357C784.74 739.75 784.779 738.055 785.039 736.311C785.552 732.818 786.979 729.202 787.073 725.82C787.141 723.58 786.531 721.368 784.595 719.601Z" fill="white"/>
<path d="M814.681 747.051L814.208 747.567L813.736 748.084C814.956 749.205 815.506 750.42 815.706 751.811C815.904 753.199 815.712 754.77 815.356 756.449C814.657 759.811 813.296 763.562 813.595 767.308C813.793 769.797 814.793 772.285 817.181 774.464L817.207 774.487L817.296 774.557L818.065 773.385L817.686 773.963L818.151 773.452L818.15 773.451C816.531 771.971 815.677 770.433 815.262 768.827C814.848 767.221 814.888 765.527 815.149 763.781C815.661 760.289 817.088 756.674 817.182 753.292C817.25 751.052 816.641 748.839 814.706 747.073C814.698 747.066 814.688 747.057 814.681 747.051Z" fill="white"/>
</g>
<path fill-rule="evenodd" clip-rule="evenodd" d="M1262.96 83.0196L1306.96 57.6345C1308.66 56.6572 1309.24 54.4912 1308.26 52.7982C1307.28 51.104 1305.12 50.5231 1303.42 51.5004L1259.42 76.8854C1257.73 77.8628 1257.14 80.0275 1258.12 81.7218C1259.1 83.4148 1261.26 83.9969 1262.96 83.0196ZM1286.27 86.4437L1242.26 111.829L1242.97 113.056L1286.98 87.6705L1286.27 86.4437Z" fill="#1E1E1F"/>
<g filter="url(#filter0_f_1_4341)">
<path fill-rule="evenodd" clip-rule="evenodd" d="M76.0689 886.337C71.1994 892.999 63.8443 897.782 55.0492 899.159C51.7794 899.67 49.5399 902.736 50.0512 906.008C50.5621 909.278 53.6306 911.517 56.9005 911.006C80.9996 907.235 97.4744 884.653 93.714 860.557C89.9438 836.46 67.3654 819.982 43.2652 823.746C39.9953 824.257 37.7562 827.325 38.2671 830.595C38.6512 833.053 40.4799 834.928 42.7531 835.491C41.9222 837.058 40.9804 838.565 39.9348 839.998C34.3574 847.644 25.8732 853.154 15.784 854.731L16.1543 857.1C29.3299 855.041 39.9501 846.671 45.4164 835.548C54.1068 834.273 62.4513 836.585 69.0452 841.388C75.7074 846.26 80.4876 853.613 81.8644 862.408C83.236 871.202 80.9272 879.665 76.0689 886.337ZM4.37021 781.687L3.99996 779.318C25.4796 775.964 45.6087 790.654 48.9647 812.131C49.5508 815.882 49.5865 819.59 49.1318 823.174C48.3245 823.195 47.5107 823.238 46.6954 823.302C47.1828 819.803 47.1691 816.174 46.5952 812.501C45.019 802.415 39.5086 793.93 31.8644 788.35C24.2206 782.772 14.4598 780.113 4.37021 781.687Z" fill="#1E1E1F"/>
</g>
<g opacity="0.03">
<path d="M131.596 567.091L140.687 550.185C141.287 549.069 142.678 548.65 143.795 549.25C144.912 549.851 145.33 551.242 144.73 552.358L135.639 569.265C135.039 570.381 133.648 570.8 132.531 570.2C131.415 569.599 130.996 568.207 131.596 567.091Z" fill="white"/>
<path d="M145.592 566.322L128.685 557.232C127.568 556.632 127.15 555.24 127.75 554.124C128.35 553.008 129.742 552.59 130.858 553.19L147.766 562.28C148.882 562.88 149.301 564.271 148.7 565.387C148.1 566.504 146.709 566.922 145.592 566.322Z" fill="white"/>
</g>
<g filter="url(#filter1_f_1_4341)">
<path fill-rule="evenodd" clip-rule="evenodd" d="M1866.69 71.9401L1896 87.6972C1901.04 90.4054 1907.32 88.5184 1910.03 83.4781C1912.74 78.4418 1910.85 72.161 1905.81 69.4527L1876.5 53.6949L1892.11 24.6711C1894.82 19.6348 1892.93 13.354 1887.89 10.6418C1882.85 7.93351 1876.57 9.82441 1873.86 14.8607L1858.25 43.884L1829.5 28.4241C1824.46 25.7158 1818.18 27.6028 1815.47 32.643C1812.76 37.6793 1814.65 43.9601 1819.69 46.6684L1848.44 62.1291L1832.83 91.1691C1830.12 96.2054 1832.01 102.489 1837.05 105.198C1842.09 107.907 1848.37 106.016 1851.08 100.979L1866.69 71.9401Z" fill="#1E1E1F"/>
</g>
<g filter="url(#filter2_f_1_4341)">
<path fill-rule="evenodd" clip-rule="evenodd" d="M1406.62 922.873L1406.74 923.3L1417.08 962.023L1405.34 973.745L1364.92 1014.13L1350.18 958.93L1335.42 903.728L1390.58 918.563L1406.62 922.873ZM1405.78 919.705L1391.32 915.821L1331.41 899.705L1347.44 959.663L1363.45 1019.62L1407.35 975.757L1417.93 965.193L1422.12 980.874C1422.77 983.326 1424.69 985.241 1427.14 985.9C1429.59 986.559 1432.21 985.858 1434 984.065L1476.16 941.945L1518.32 899.848C1520.12 898.053 1520.82 895.439 1520.17 892.987C1519.51 890.536 1517.6 888.621 1515.15 887.962L1457.59 872.501L1400.05 857.027C1397.6 856.368 1394.98 857.066 1393.19 858.859C1391.39 860.652 1390.69 863.268 1391.34 865.72L1405.78 919.705ZM1432.67 965.318L1420.46 919.632L1408.25 873.942L1453.9 886.22L1499.58 898.487L1466.12 931.897L1432.67 965.318ZM1451.26 931.918L1429.58 953.558L1428.74 950.387L1445.77 933.384L1422.53 927.145L1421.68 923.975L1451.26 931.918Z" fill="#1E1E1F"/>
</g>
<g opacity="0.03">
<path d="M1302.56 360.262C1301.31 354.892 1298.03 350.564 1293.69 347.855C1289.35 345.155 1284.02 344.109 1278.65 345.352C1273.28 346.598 1268.96 349.882 1266.25 354.216C1263.54 358.554 1262.5 363.884 1263.74 369.257C1264.21 371.254 1262.96 373.25 1260.96 373.713C1258.97 374.175 1256.97 372.93 1256.51 370.933C1253.1 356.217 1262.26 341.529 1276.98 338.116C1291.69 334.71 1306.38 343.87 1309.79 358.586C1310.26 360.582 1309.01 362.578 1307.01 363.041C1305.02 363.504 1303.02 362.259 1302.56 360.262Z" fill="white"/>
<path d="M1230.83 397.185L1232.28 396.85C1230.85 390.689 1232.06 384.54 1235.16 379.568C1238.26 374.595 1243.25 370.81 1249.41 369.382C1251.66 368.863 1253.9 368.691 1256.08 368.835C1256 368.334 1255.94 367.833 1255.89 367.335C1253.66 367.216 1251.37 367.405 1249.08 367.935C1235.96 370.975 1227.79 384.069 1230.83 397.185ZM1276.88 386.514L1278.33 386.179C1276.46 378.124 1270.8 371.936 1263.68 369.064C1263.69 369.109 1263.7 369.155 1263.71 369.201C1263.83 369.711 1263.83 370.22 1263.75 370.704C1264.77 371.15 1265.75 371.67 1266.7 372.259C1271.67 375.361 1275.46 380.353 1276.88 386.514Z" fill="white"/>
</g>
<defs>
<filter id="filter0_f_1_4341" x="-6.00006" y="768.841" width="110.249" height="152.238" filterUnits="userSpaceOnUse" color-interpolation-filters="sRGB">
<feFlood flood-opacity="0" result="BackgroundImageFix"/>
<feBlend mode="normal" in="SourceGraphic" in2="BackgroundImageFix" result="shape"/>
<feGaussianBlur stdDeviation="5" result="effect1_foregroundBlur_1_4341"/>
</filter>
<filter id="filter1_f_1_4341" x="1805.23" y="0.405762" width="115.035" height="115.029" filterUnits="userSpaceOnUse" color-interpolation-filters="sRGB">
<feFlood flood-opacity="0" result="BackgroundImageFix"/>
<feBlend mode="normal" in="SourceGraphic" in2="BackgroundImageFix" result="shape"/>
<feGaussianBlur stdDeviation="4.5" result="effect1_foregroundBlur_1_4341"/>
</filter>
<filter id="filter2_f_1_4341" x="1321.41" y="846.783" width="209" height="182.832" filterUnits="userSpaceOnUse" color-interpolation-filters="sRGB">
<feFlood flood-opacity="0" result="BackgroundImageFix"/>
<feBlend mode="normal" in="SourceGraphic" in2="BackgroundImageFix" result="shape"/>
<feGaussianBlur stdDeviation="5" result="effect1_foregroundBlur_1_4341"/>
</filter>
</defs>
</svg>
